<svg width="50" height="44" viewBox="0 0 50 44" fill="none" xmlns="http://www.w3.org/2000/svg">
<path d="M48.5118 31.3921C49.2823 31.3502 49.8947 30.7132 49.8947 29.9314C49.8947 25.7161 46.5111 22.4142 42.1917 22.4142H40.7643L39.0195 14.1328C40.7031 13.4013 41.884 11.7214 41.884 9.76996C41.884 7.14867 39.754 5.01605 37.1358 5.01605H30.3863C29.5783 5.01605 28.9232 5.67191 28.9232 6.4809V8.30511H25.3268C24.5188 8.30511 23.8637 8.96097 23.8637 9.76996C23.8637 10.5789 24.5188 11.2348 25.3268 11.2348H28.9232V13.059C28.9232 13.868 29.5783 14.5239 30.3863 14.5239H31.0359C29.8246 15.9564 29.0919 17.8069 29.0919 19.8265V28.1623C29.0919 28.2051 29.0572 28.2398 29.0146 28.2398H23.1044C23.0703 28.2398 23.0398 28.217 23.0302 28.1843L21.4369 22.7935C22.721 22.45 23.6698 21.2757 23.6698 19.8832C23.6698 16.5769 20.9832 13.887 17.681 13.887H4.49863C2.01816 13.887 0 15.9076 0 18.3911C0 20.6617 1.68682 22.5441 3.87148 22.8507C1.55391 24.9263 0.0924805 27.9415 0.0924805 31.2925V35.853C0.0924805 36.662 0.747559 37.3178 1.55557 37.3178H2.82148C3.50293 40.7202 6.50957 43.2914 10.1054 43.2914C13.7012 43.2914 16.7078 40.7202 17.3893 37.3178H35.2867C35.9682 40.7202 38.9748 43.2914 42.5706 43.2914C46.6671 43.2914 49.9999 39.9545 49.9999 35.853C50 34.1807 49.4457 32.6359 48.5118 31.3921ZM46.729 28.4665H43.4354C43.1515 28.4334 42.8633 28.4145 42.5707 28.4145C42.0463 28.4145 41.5348 28.47 41.0408 28.5739V25.3439H42.1918C44.3346 25.3439 46.1062 26.6336 46.729 28.4665ZM31.8493 7.94564H37.1358C38.1405 7.94564 38.9579 8.764 38.9579 9.76986C38.9579 10.7757 38.1405 11.5941 37.1358 11.5941H31.8493V7.94564ZM23.1045 31.1694H29.0146C30.6708 31.1694 32.0181 29.8204 32.0181 28.1622V19.8264C32.0181 17.3086 33.7843 15.1959 36.1414 14.6654L38.1147 24.0316V29.9049C36.6829 30.9829 35.6518 32.5662 35.2868 34.388H20.7409C20.0576 29.1324 15.7176 25.2002 10.3006 25.2002C7.88506 25.2002 5.7165 25.9893 4.00557 27.3457C5.41885 24.7 8.20518 22.8954 11.4056 22.8954H18.4159L20.2247 29.0156C20.5993 30.2837 21.7836 31.1694 23.1045 31.1694ZM3.1375 34.388C3.39316 32.8296 4.05889 31.4239 5.07695 30.3346C6.40576 28.9128 8.26084 28.1298 10.3004 28.1298C14.074 28.1298 17.1226 30.7818 17.7771 34.3879H3.1375V34.388ZM4.49863 19.9658C3.63154 19.9658 2.92607 19.2594 2.92607 18.3911C2.92607 17.5229 3.63154 16.8165 4.49863 16.8165H17.681C19.3698 16.8165 20.7437 18.1921 20.7437 19.883C20.7313 19.9433 20.6348 19.9831 20.4552 19.9656C19.238 19.9656 19.5859 19.9656 19.3324 19.9656C17.5843 19.9658 4.50713 19.9658 4.49863 19.9658ZM10.1054 40.3617C8.13437 40.3617 6.45625 39.0868 5.84746 37.3177H14.3633C13.7545 39.0868 12.0764 40.3617 10.1054 40.3617ZM42.5707 40.3617C40.0876 40.3617 38.0675 38.339 38.0675 35.8529C38.0675 33.3667 40.0877 31.3442 42.5707 31.3442C45.0538 31.3442 47.0739 33.3667 47.0739 35.8529C47.0739 38.339 45.0537 40.3617 42.5707 40.3617Z" fill="#63A60E"/>
<path d="M42.5707 37.3275C43.3841 37.3275 44.0435 36.6673 44.0435 35.853C44.0435 35.0386 43.3841 34.3785 42.5707 34.3785C41.7573 34.3785 41.098 35.0386 41.098 35.853C41.098 36.6673 41.7573 37.3275 42.5707 37.3275Z" fill="#63A60E"/>
<path d="M1.52443 9.64086H14.6463C15.4543 9.64086 16.1094 8.985 16.1094 8.17602C16.1094 7.36704 15.4543 6.71118 14.6463 6.71118H1.52443C0.716418 6.71118 0.0613403 7.36704 0.0613403 8.17602C0.0613403 8.985 0.716418 9.64086 1.52443 9.64086Z" fill="#63A60E"/>
<path d="M6.38496 3.63824H19.6199C20.4279 3.63824 21.083 2.98238 21.083 2.1734C21.083 1.36442 20.4279 0.708557 19.6199 0.708557H6.38496C5.57695 0.708557 4.92188 1.36442 4.92188 2.1734C4.92188 2.98238 5.57695 3.63824 6.38496 3.63824Z" fill="#63A60E"/>
</svg>
